<svg xmlns="http://www.w3.org/2000/svg" xmlns:se="http://svg-edit.googlecode.com" xmlns:xlink="http://www.w3.org/1999/xlink" xmlns:dc="http://purl.org/dc/elements/1.1/" xmlns:cc="http://creativecommons.org/ns#" xmlns:rdf="http://www.w3.org/1999/02/22-rdf-syntax-ns#" xmlns:inkscape="http://www.inkscape.org/namespaces/inkscape" width="324" height="204">                                    <title>my vector image</title>                                    <!-- Created with Vector Paint - http://www.vectorpaint.yaks.com/ https://chrome.google.com/webstore/detail/hnbpdiengicdefcjecjbnjnoifekhgdo -->                                    <rect id="backgroundrect" width="100%" height="100%" x="0" y="0" fill="#FFFFFF" stroke="none"/>                                <g class="currentLayer"><title>Layer 1</title><path fill="#e84141" fill-opacity="1" stroke="#222222" stroke-opacity="1" stroke-width="2" stroke-dasharray="none" stroke-linejoin="round" stroke-linecap="butt" stroke-dashoffset="" fill-rule="nonzero" opacity="1" marker-start="" marker-mid="" marker-end="" d="M0.9999999278802107,178.0772499166368 L62.84210596705424,101.10356474021802 " id="svg_21" class=""/><path fill="#e84141" fill-opacity="1" stroke="#222222" stroke-opacity="1" stroke-width="2" stroke-dasharray="none" stroke-linejoin="round" stroke-linecap="butt" stroke-dashoffset="" fill-rule="nonzero" opacity="1" marker-start="" marker-mid="" marker-end="" d="M80.21052484452906,134.91935196741804 L142.0526308837031,57.94566679099927 " class="" id="svg_24" transform="rotate(46.225013732910156 111.13157653808595,96.43251037597655) "/><path fill="#e84141" fill-opacity="1" stroke="#222222" stroke-opacity="1" stroke-width="2" stroke-dasharray="none" stroke-linejoin="round" stroke-linecap="butt" stroke-dashoffset="" fill-rule="nonzero" opacity="1" marker-start="" marker-mid="" marker-end="" d="M234.2320978024834,76.04442824486156 L314.2561977810719,0.9999990871432374 " class="" transform="rotate(68.26048278808594 274.24414062500006,38.52221679687501) " id="svg_25"/><path fill="#e84141" fill-opacity="1" stroke="#222222" stroke-opacity="1" stroke-width="2" stroke-dasharray="none" stroke-linejoin="round" stroke-linecap="butt" stroke-dashoffset="" fill-rule="nonzero" opacity="1" marker-start="" marker-mid="" marker-end="" d="M161.13157968461695,91.49830094202741 L222.973685723791,14.524615765608644 " class="" id="svg_26"/><path fill="#e84141" fill-opacity="1" stroke="#ffffff" stroke-opacity="1" stroke-width="2" stroke-dasharray="none" stroke-linejoin="round" stroke-linecap="butt" stroke-dashoffset="" fill-rule="nonzero" opacity="1" marker-start="" marker-mid="" marker-end="" d="M56.58946228027344,101.02461242675781 C56.58946228027344,97.70969529968599 59.274545153201615,95.02461242675781 62.58946228027344,95.02461242675781 C65.90437940734526,95.02461242675781 68.58946228027344,97.70969529968599 68.58946228027344,101.02461242675781 C68.58946228027344,104.33952955382964 65.90437940734526,107.02461242675781 62.58946228027344,107.02461242675781 C59.274545153201615,107.02461242675781 56.58946228027344,104.33952955382964 56.58946228027344,101.02461242675781 z" id="svg_27" class=""/><path fill="#e84141" fill-opacity="1" stroke="#ffffff" stroke-opacity="1" stroke-width="2" stroke-dasharray="none" stroke-linejoin="round" stroke-linecap="butt" stroke-dashoffset="" fill-rule="nonzero" opacity="1" marker-start="" marker-mid="" marker-end="" d="M154.22103881835938,90.76145362854004 C154.22103881835938,87.44653650146822 156.90612169128758,84.76145362854004 160.22103881835938,84.76145362854004 C163.53595594543117,84.76145362854004 166.22103881835938,87.44653650146822 166.22103881835938,90.76145362854004 C166.22103881835938,94.07637075561186 163.53595594543117,96.76145362854004 160.22103881835938,96.76145362854004 C156.90612169128758,96.76145362854004 154.22103881835938,94.07637075561186 154.22103881835938,90.76145362854004 z" class="" id="svg_30"/><path fill="#e84141" fill-opacity="1" stroke="#ffffff" stroke-opacity="1" stroke-width="2" stroke-dasharray="none" stroke-linejoin="round" stroke-linecap="butt" stroke-dashoffset="" fill-rule="nonzero" opacity="1" marker-start="" marker-mid="" marker-end="" d="M217.64209365844727,15.366716384887695 C217.64209365844727,12.051799257815873 220.32717653137547,9.366716384887695 223.64209365844727,9.366716384887695 C226.95701078551906,9.366716384887695 229.64209365844727,12.051799257815873 229.64209365844727,15.366716384887695 C229.64209365844727,18.681633511959518 226.95701078551906,21.366716384887695 223.64209365844727,21.366716384887695 C220.32717653137547,21.366716384887695 217.64209365844727,18.681633511959518 217.64209365844727,15.366716384887695 z" class="" id="svg_31"/><path fill="#0bd5d5" fill-opacity="1" stroke="#ffffff" stroke-opacity="1" stroke-width="2" stroke-dasharray="none" stroke-linejoin="round" stroke-linecap="butt" stroke-dashoffset="" fill-rule="nonzero" opacity="1" marker-start="" marker-mid="" marker-end="" d="M270.7999871969223,57.340399384498596 C270.7999871969223,54.02548225742677 273.4850700698505,51.340399384498596 276.7999871969223,51.340399384498596 C280.1149043239941,51.340399384498596 282.7999871969223,54.02548225742677 282.7999871969223,57.340399384498596 C282.7999871969223,60.65531651157039 280.1149043239941,63.340399384498596 276.7999871969223,63.340399384498596 C273.4850700698505,63.340399384498596 270.7999871969223,60.65531651157039 270.7999871969223,57.340399384498596 z" class="" id="svg_32"/><path fill="#e84141" fill-opacity="1" stroke="#222222" stroke-opacity="1" stroke-width="2" stroke-dasharray="none" stroke-linejoin="round" stroke-linecap="butt" stroke-dashoffset="" fill-rule="nonzero" opacity="1" marker-start="" marker-mid="" marker-end="" d="M283.8734071456608,52.00725297225742 L322.7969209620103,15.505838074219625 " class="" transform="rotate(1.2112014293670654 303.3351745605464,33.756546020505574) " id="svg_33"/><path fill="#e84141" fill-opacity="1" stroke="#222222" stroke-opacity="1" stroke-width="2" stroke-dasharray="none" stroke-linejoin="round" stroke-linecap="butt" stroke-dashoffset="" fill-rule="nonzero" opacity="1" marker-start="" marker-mid="" marker-end="" d="M213.76315694736786,136.23514368550073 L271.9053081449036,63.866721450270035 " class="" id="svg_34"/><path fill="#0bd5d5" fill-opacity="1" stroke="#ffffff" stroke-opacity="1" stroke-width="2" stroke-dasharray="none" stroke-linejoin="round" stroke-linecap="butt" stroke-dashoffset="" fill-rule="nonzero" opacity="1" marker-start="" marker-mid="" marker-end="" d="M207.9052505493164,138.52461051940918 C207.9052505493164,135.20969339233739 210.5903334222446,132.52461051940918 213.9052505493164,132.52461051940918 C217.2201676763882,132.52461051940918 219.9052505493164,135.20969339233739 219.9052505493164,138.52461051940918 C219.9052505493164,141.83952764648097 217.2201676763882,144.52461051940918 213.9052505493164,144.52461051940918 C210.5903334222446,144.52461051940918 207.9052505493164,141.83952764648097 207.9052505493164,138.52461051940918 z" class="" id="svg_35"/><path fill="#e84141" fill-opacity="1" stroke="#222222" stroke-opacity="1" stroke-width="2" stroke-dasharray="none" stroke-linejoin="round" stroke-linecap="butt" stroke-dashoffset="" fill-rule="nonzero" opacity="1" marker-start="" marker-mid="" marker-end="" d="M128.6915753629254,183.7663467807497 L189.4000696423568,108.2036464542233 " class="" transform="rotate(46.225013732910156 159.0458221435548,145.98500061035153) " id="svg_36"/><path fill="#0bd5d5" fill-opacity="1" stroke="#ffffff" stroke-opacity="1" stroke-width="2" stroke-dasharray="none" stroke-linejoin="round" stroke-linecap="butt" stroke-dashoffset="" fill-rule="nonzero" opacity="1" marker-start="" marker-mid="" marker-end="" d="M97.24735701084137,150.89303398132324 C97.24735701084137,147.57811685425142 99.93243988376955,144.89303398132324 103.24735701084137,144.89303398132324 C106.56227413791319,144.89303398132324 109.24735701084137,147.57811685425142 109.24735701084137,150.89303398132324 C109.24735701084137,154.20795110839506 106.56227413791319,156.89303398132324 103.24735701084137,156.89303398132324 C99.93243988376955,156.89303398132324 97.24735701084137,154.20795110839506 97.24735701084137,150.89303398132324 z" class="" id="svg_37"/><path fill="#e84141" fill-opacity="1" stroke="#222222" stroke-opacity="1" stroke-width="2" stroke-dasharray="none" stroke-linejoin="round" stroke-linecap="butt" stroke-dashoffset="" fill-rule="nonzero" opacity="1" marker-start="" marker-mid="" marker-end="" d="M18.36842088639918,203.34040299280866 L80.21052692557322,126.3667178163899 " class="" id="svg_38" transform="rotate(37.0587272644043 49.28947448730472,164.85356140136716) "/></g></svg>