<svg xmlns="http://www.w3.org/2000/svg" xmlns:se="http://svg-edit.googlecode.com" xmlns:xlink="http://www.w3.org/1999/xlink" xmlns:dc="http://purl.org/dc/elements/1.1/" xmlns:cc="http://creativecommons.org/ns#" xmlns:rdf="http://www.w3.org/1999/02/22-rdf-syntax-ns#" xmlns:inkscape="http://www.inkscape.org/namespaces/inkscape" width="165" height="138">                                    <title>my vector image</title>                                    <!-- Created with Vector Paint - http://www.vectorpaint.yaks.com/ https://chrome.google.com/webstore/detail/hnbpdiengicdefcjecjbnjnoifekhgdo -->                                    <rect id="backgroundrect" width="100%" height="100%" x="0" y="0" fill="#FFFFFF" stroke="none" class=""/>                                <g class="currentLayer"><title>Layer 1</title><path fill="#e84141" fill-opacity="1" stroke="#ffffff" stroke-opacity="1" stroke-width="2" stroke-dasharray="none" stroke-linejoin="round" stroke-linecap="butt" stroke-dashoffset="" fill-rule="nonzero" opacity="1" marker-start="" marker-mid="" marker-end="" d="M59.55263328552246,85.81579399108887 C59.55263328552246,82.50087686401707 62.23771615845067,79.81579399108887 65.55263328552246,79.81579399108887 C68.86755041259426,79.81579399108887 71.55263328552246,82.50087686401707 71.55263328552246,85.81579399108887 C71.55263328552246,89.13071111816066 68.86755041259426,91.81579399108887 65.55263328552246,91.81579399108887 C62.23771615845067,91.81579399108887 59.55263328552246,89.13071111816066 59.55263328552246,85.81579399108887 z" class="" id="svg_31"/><path fill="#e84141" fill-opacity="1" stroke="#ffffff" stroke-opacity="1" stroke-width="2" stroke-dasharray="none" stroke-linejoin="round" stroke-linecap="butt" stroke-dashoffset="" fill-rule="nonzero" opacity="1" marker-start="" marker-mid="" marker-end="" d="M105.21052742004395,22.921056747436523 C105.21052742004395,19.60613962036473 107.89561029297215,16.921056747436523 111.21052742004395,16.921056747436523 C114.52544454711574,16.921056747436523 117.21052742004395,19.60613962036473 117.21052742004395,22.921056747436523 C117.21052742004395,26.235973874508318 114.52544454711574,28.921056747436523 111.21052742004395,28.921056747436523 C107.89561029297215,28.921056747436523 105.21052742004395,26.235973874508318 105.21052742004395,22.921056747436523 z" class="" id="svg_45"/><path fill="#e84141" fill-opacity="1" stroke="#ffffff" stroke-opacity="1" stroke-width="2" stroke-dasharray="none" stroke-linejoin="round" stroke-linecap="butt" stroke-dashoffset="" fill-rule="nonzero" opacity="1" marker-start="" marker-mid="" marker-end="" d="M87.05263328552246,105.42105674743652 C87.05263328552246,102.10613962036473 89.73771615845067,99.42105674743652 93.05263328552246,99.42105674743652 C96.36755041259426,99.42105674743652 99.05263328552246,102.10613962036473 99.05263328552246,105.42105674743652 C99.05263328552246,108.73597387450832 96.36755041259426,111.42105674743652 93.05263328552246,111.42105674743652 C89.73771615845067,111.42105674743652 87.05263328552246,108.73597387450832 87.05263328552246,105.42105674743652 z" class="" id="svg_46"/><path fill="#e84141" fill-opacity="1" stroke="#ffffff" stroke-opacity="1" stroke-width="2" stroke-dasharray="none" stroke-linejoin="round" stroke-linecap="butt" stroke-dashoffset="" fill-rule="nonzero" opacity="1" marker-start="" marker-mid="" marker-end="" d="M30.736845016479492,6.999998092651367 C30.736845016479492,3.685080965579573 33.4219278894077,0.9999980926513672 36.73684501647949,0.9999980926513672 C40.05176214355129,0.9999980926513672 42.73684501647949,3.685080965579573 42.73684501647949,6.999998092651367 C42.73684501647949,10.314915219723161 40.05176214355129,12.999998092651367 36.73684501647949,12.999998092651367 C33.4219278894077,12.999998092651367 30.736845016479492,10.314915219723161 30.736845016479492,6.999998092651367 z" class="" id="svg_47"/><path fill="#e84141" fill-opacity="1" stroke="#ffffff" stroke-opacity="1" stroke-width="2" stroke-dasharray="none" stroke-linejoin="round" stroke-linecap="butt" stroke-dashoffset="" fill-rule="nonzero" opacity="1" marker-start="" marker-mid="" marker-end="" d="M46.78947639465332,130.94736576080322 C46.78947639465332,127.63244863373143 49.474559267581526,124.94736576080322 52.78947639465332,124.94736576080322 C56.104393521725115,124.94736576080322 58.78947639465332,127.63244863373143 58.78947639465332,130.94736576080322 C58.78947639465332,134.26228288787502 56.104393521725115,136.94736576080322 52.78947639465332,136.94736576080322 C49.474559267581526,136.94736576080322 46.78947639465332,134.26228288787502 46.78947639465332,130.94736576080322 z" class="" id="svg_48"/><path fill="#e84141" fill-opacity="1" stroke="#ffffff" stroke-opacity="1" stroke-width="2" stroke-dasharray="none" stroke-linejoin="round" stroke-linecap="butt" stroke-dashoffset="" fill-rule="nonzero" opacity="1" marker-start="" marker-mid="" marker-end="" d="M1.0000057220458984,81.86841773986816 C1.0000057220458984,78.55350061279637 3.685088594974104,75.86841773986816 7.000005722045898,75.86841773986816 C10.314922849117693,75.86841773986816 13.000005722045898,78.55350061279637 13.000005722045898,81.86841773986816 C13.000005722045898,85.18333486693996 10.314922849117693,87.86841773986816 7.000005722045898,87.86841773986816 C3.685088594974104,87.86841773986816 1.0000057220458984,85.18333486693996 1.0000057220458984,81.86841773986816 z" class="" id="svg_49"/><path fill="#e84141" fill-opacity="1" stroke="#ffffff" stroke-opacity="1" stroke-width="2" stroke-dasharray="none" stroke-linejoin="round" stroke-linecap="butt" stroke-dashoffset="" fill-rule="nonzero" opacity="1" marker-start="" marker-mid="" marker-end="" d="M146.00000381469727,63.71052360534668 C146.00000381469727,60.395606478274885 148.68508668762547,57.71052360534668 152.00000381469727,57.71052360534668 C155.31492094176906,57.71052360534668 158.00000381469727,60.395606478274885 158.00000381469727,63.71052360534668 C158.00000381469727,67.02544073241847 155.31492094176906,69.71052360534668 152.00000381469727,69.71052360534668 C148.68508668762547,69.71052360534668 146.00000381469727,67.02544073241847 146.00000381469727,63.71052360534668 z" class="" id="svg_50"/><path fill="#e84141" fill-opacity="1" stroke="#ffffff" stroke-opacity="1" stroke-width="2" stroke-dasharray="none" stroke-linejoin="round" stroke-linecap="butt" stroke-dashoffset="" fill-rule="nonzero" opacity="1" marker-start="" marker-mid="" marker-end="" d="M73.23684501647949,61.34210395812988 C73.23684501647949,58.02718683105809 75.9219278894077,55.34210395812988 79.23684501647949,55.34210395812988 C82.55176214355129,55.34210395812988 85.23684501647949,58.02718683105809 85.23684501647949,61.34210395812988 C85.23684501647949,64.65702108520168 82.55176214355129,67.34210395812988 79.23684501647949,67.34210395812988 C75.9219278894077,67.34210395812988 73.23684501647949,64.65702108520168 73.23684501647949,61.34210395812988 z" class="" id="svg_51"/><path fill="#e84141" fill-opacity="1" stroke="#ffffff" stroke-opacity="1" stroke-width="2" stroke-dasharray="none" stroke-linejoin="round" stroke-linecap="butt" stroke-dashoffset="" fill-rule="nonzero" opacity="1" marker-start="" marker-mid="" marker-end="" d="M124.42105484008789,75.6842098236084 C124.42105484008789,72.3692926965366 127.1061377130161,69.6842098236084 130.4210548400879,69.6842098236084 C133.73597196715968,69.6842098236084 136.4210548400879,72.3692926965366 136.4210548400879,75.6842098236084 C136.4210548400879,78.99912695068019 133.73597196715968,81.6842098236084 130.4210548400879,81.6842098236084 C127.1061377130161,81.6842098236084 124.42105484008789,78.99912695068019 124.42105484008789,75.6842098236084 z" class="" id="svg_53"/><path fill="#0bd5d5" fill-opacity="1" stroke="#ffffff" stroke-opacity="1" stroke-width="2" stroke-dasharray="none" stroke-linejoin="round" stroke-linecap="butt" stroke-dashoffset="" fill-rule="nonzero" opacity="1" marker-start="" marker-mid="" marker-end="" d="M82.71053314208984,62.92105674743652 C82.71053314208984,59.60613962036473 85.39561601501805,56.92105674743652 88.71053314208984,56.92105674743652 C92.02545026916164,56.92105674743652 94.71053314208984,59.60613962036473 94.71053314208984,62.92105674743652 C94.71053314208984,66.23597387450832 92.02545026916164,68.92105674743652 88.71053314208984,68.92105674743652 C85.39561601501805,68.92105674743652 82.71053314208984,66.23597387450832 82.71053314208984,62.92105674743652 z" class="" id="svg_35"/><path fill="#0bd5d5" fill-opacity="1" stroke="#ffffff" stroke-opacity="1" stroke-width="2" stroke-dasharray="none" stroke-linejoin="round" stroke-linecap="butt" stroke-dashoffset="" fill-rule="nonzero" opacity="1" marker-start="" marker-mid="" marker-end="" d="M102.71053314208984,82.92105674743652 C102.71053314208984,79.60613962036473 105.39561601501805,76.92105674743652 108.71053314208984,76.92105674743652 C112.02545026916164,76.92105674743652 114.71053314208984,79.60613962036473 114.71053314208984,82.92105674743652 C114.71053314208984,86.23597387450832 112.02545026916164,88.92105674743652 108.71053314208984,88.92105674743652 C105.39561601501805,88.92105674743652 102.71053314208984,86.23597387450832 102.71053314208984,82.92105674743652 z" class="" id="svg_54"/><path fill="#0bd5d5" fill-opacity="1" stroke="#ffffff" stroke-opacity="1" stroke-width="2" stroke-dasharray="none" stroke-linejoin="round" stroke-linecap="butt" stroke-dashoffset="" fill-rule="nonzero" opacity="1" marker-start="" marker-mid="" marker-end="" d="M119.4210593700409,43.05263328552246 C119.4210593700409,39.73771615845067 122.1061422429691,37.05263328552246 125.4210593700409,37.05263328552246 C128.7359764971127,37.05263328552246 131.4210593700409,39.73771615845067 131.4210593700409,43.05263328552246 C131.4210593700409,46.367550412594255 128.7359764971127,49.05263328552246 125.4210593700409,49.05263328552246 C122.1061422429691,49.05263328552246 119.4210593700409,46.367550412594255 119.4210593700409,43.05263328552246 z" class="" id="svg_55"/><path fill="#0bd5d5" fill-opacity="1" stroke="#ffffff" stroke-opacity="1" stroke-width="2" stroke-dasharray="none" stroke-linejoin="round" stroke-linecap="butt" stroke-dashoffset="" fill-rule="nonzero" opacity="1" marker-start="" marker-mid="" marker-end="" d="M62.4473876953125,31.47368621826172 C62.4473876953125,28.158769091189924 65.1324705682407,25.47368621826172 68.4473876953125,25.47368621826172 C71.7623048223843,25.47368621826172 74.4473876953125,28.158769091189924 74.4473876953125,31.47368621826172 C74.4473876953125,34.78860334533351 71.7623048223843,37.47368621826172 68.4473876953125,37.47368621826172 C65.1324705682407,37.47368621826172 62.4473876953125,34.78860334533351 62.4473876953125,31.47368621826172 z" class="" id="svg_57"/><path fill="#0bd5d5" fill-opacity="1" stroke="#ffffff" stroke-opacity="1" stroke-width="2" stroke-dasharray="none" stroke-linejoin="round" stroke-linecap="butt" stroke-dashoffset="" fill-rule="nonzero" opacity="1" marker-start="" marker-mid="" marker-end="" d="M152.1842498779297,110.6842098236084 C152.1842498779297,107.3692926965366 154.8693327508579,104.6842098236084 158.1842498779297,104.6842098236084 C161.49916700500148,104.6842098236084 164.1842498779297,107.3692926965366 164.1842498779297,110.6842098236084 C164.1842498779297,113.99912695068019 161.49916700500148,116.6842098236084 158.1842498779297,116.6842098236084 C154.8693327508579,116.6842098236084 152.1842498779297,113.99912695068019 152.1842498779297,110.6842098236084 z" class="" id="svg_59"/><path fill="#0bd5d5" fill-opacity="1" stroke="#ffffff" stroke-opacity="1" stroke-width="2" stroke-dasharray="none" stroke-linejoin="round" stroke-linecap="butt" stroke-dashoffset="" fill-rule="nonzero" opacity="1" marker-start="" marker-mid="" marker-end="" d="M12.315834045410156,125.42105197906494 C12.315834045410156,122.10613485199315 15.000916918338362,119.42105197906494 18.315834045410156,119.42105197906494 C21.63075117248195,119.42105197906494 24.315834045410156,122.10613485199315 24.315834045410156,125.42105197906494 C24.315834045410156,128.73596910613674 21.63075117248195,131.42105197906494 18.315834045410156,131.42105197906494 C15.000916918338362,131.42105197906494 12.315834045410156,128.73596910613674 12.315834045410156,125.42105197906494 z" class="" id="svg_60"/><path fill="#0bd5d5" fill-opacity="1" stroke="#ffffff" stroke-opacity="1" stroke-width="2" stroke-dasharray="none" stroke-linejoin="round" stroke-linecap="butt" stroke-dashoffset="" fill-rule="nonzero" opacity="1" marker-start="" marker-mid="" marker-end="" d="M25.210548400878906,57.39473915100098 C25.210548400878906,54.07982202392918 27.895631273807112,51.39473915100098 31.210548400878906,51.39473915100098 C34.5254655279507,51.39473915100098 37.210548400878906,54.07982202392918 37.210548400878906,57.39473915100098 C37.210548400878906,60.70965627807277 34.5254655279507,63.39473915100098 31.210548400878906,63.39473915100098 C27.895631273807112,63.39473915100098 25.210548400878906,60.70965627807277 25.210548400878906,57.39473915100098 z" class="" id="svg_58"/><path fill="#0bd5d5" fill-opacity="1" stroke="#ffffff" stroke-opacity="1" stroke-width="2" stroke-dasharray="none" stroke-linejoin="round" stroke-linecap="butt" stroke-dashoffset="" fill-rule="nonzero" opacity="1" marker-start="" marker-mid="" marker-end="" d="M30.868423461914062,95.94737243652344 C30.868423461914062,92.63245530945164 33.55350633484227,89.94737243652344 36.86842346191406,89.94737243652344 C40.18334058898586,89.94737243652344 42.86842346191406,92.63245530945164 42.86842346191406,95.94737243652344 C42.86842346191406,99.26228956359523 40.18334058898586,101.94737243652344 36.86842346191406,101.94737243652344 C33.55350633484227,101.94737243652344 30.868423461914062,99.26228956359523 30.868423461914062,95.94737243652344 z" class="" id="svg_56"/></g></svg>